<?xml version="1.0" encoding="UTF-8" standalone="no"?>
<svg width="22px" height="22px" viewBox="0 0 22 22" version="1.1" xmlns="http://www.w3.org/2000/svg" xmlns:xlink="http://www.w3.org/1999/xlink">
    <!-- Generator: Sketch 41.2 (35397) - http://www.bohemiancoding.com/sketch -->
    <title>Group 2</title>
    <desc>Created with Sketch.</desc>
    <defs></defs>
    <g id="Symbols" stroke="none" stroke-width="1" fill="none" fill-rule="evenodd">
        <g id="Large-/-Header" transform="translate(-1287.000000, -20.000000)" fill="#E95950">
            <g id="Group-2" transform="translate(1287.000000, 20.000000)">
                <path d="M10.9999345,1.98202211 C13.9370521,1.98202211 14.2849249,1.9932439 15.4449523,2.04616536 C16.5174329,2.09511334 17.0998263,2.27426907 17.4874773,2.42491183 C17.9652552,2.60125206 18.3974389,2.88242884 18.7522552,3.24777063 C19.117594,3.60258971 19.3987686,4.03477686 19.5751074,4.51255853 C19.725749,4.9001689 19.904947,5.48261059 19.9538509,6.55509972 C20.0067719,7.71504899 20.0179936,8.06292461 20.0179936,11.0001528 C20.0179936,13.937381 20.0067719,14.2851693 19.9538509,15.4452059 C19.9049033,16.5176951 19.7257053,17.1000931 19.5751074,17.4877471 C19.2050479,18.447076 18.4467986,19.2053314 17.4874773,19.5753938 C17.09987,19.7260366 16.5174329,19.905236 15.4449523,19.9541403 C14.2852306,20.0070618 13.9373577,20.0182835 10.9999345,20.0182835 C8.06251129,20.0182835 7.71476942,20.0070618 6.55491669,19.9541403 C5.48243607,19.9051923 4.90004267,19.7259929 4.51239171,19.5753938 C4.03461316,19.3990549 3.60242917,19.117878 3.24761385,18.752535 C2.88227612,18.397715 2.60110175,17.9655281 2.42476158,17.4877471 C2.27412002,17.1001367 2.09492205,16.5176951 2.04601812,15.4452059 C1.99309708,14.2853003 1.98187538,13.937381 1.98187538,11.0001528 C1.98187538,8.06292461 1.99309708,7.71513632 2.04601812,6.55509972 C2.09496571,5.48261059 2.27412002,4.90021257 2.42476158,4.51255853 C2.60112009,4.03475305 2.88232528,3.60254977 3.24770118,3.24772696 C3.60251839,2.88238633 4.03470183,2.60120973 4.51247904,2.42486816 C4.90008634,2.2742254 5.4825234,2.09502601 6.55500402,2.04612169 C7.71494408,1.99320024 8.06281694,1.98197844 11.0000218,1.98197844 L10.9999345,1.98202211 Z M11.0000218,3.87819277e-17 C8.01260308,3.87819277e-17 7.63787673,0.0126627249 6.46479374,0.0661954863 C5.29393762,0.119640918 4.49435838,0.305564652 3.79468289,0.577507587 C3.06071346,0.853713546 2.39582623,1.28669834 1.8463853,1.84626896 C1.28669301,2.39567981 0.853590757,3.06057491 0.577284681,3.79458202 C0.305562226,4.49430674 0.119639969,5.29389232 0.0664132819,6.46475773 C0.0126626244,7.63785004 0,8.01257937 0,11.0000218 C0,13.9874643 0.0126626244,14.3621936 0.0664132819,15.5352859 C0.11985829,16.7061513 0.305780548,17.5057369 0.577721323,18.205418 C0.853926348,18.9393926 1.28690754,19.6042848 1.84647263,20.153731 C2.39591177,20.7133038 3.06079951,21.146289 3.79477022,21.4224924 C4.49448938,21.6944353 5.29406861,21.8803591 6.46488106,21.9338045 C7.63813871,21.9873373 8.01273407,22 11.0001092,22 C13.9874842,22 14.3622543,21.9873373 15.5353373,21.9338045 C16.7061934,21.8803591 17.5057726,21.6944353 18.2054481,21.4224924 C19.6829905,20.851031 20.8510401,19.6829721 21.422497,18.205418 C21.6944378,17.5056933 21.88036,16.7061077 21.933805,15.5352859 C21.9873374,14.362019 22,13.9874206 22,11.0000218 C22,8.01262303 21.9873374,7.63785004 21.933805,6.46475773 C21.88036,5.29389232 21.6944378,4.49430674 21.422497,3.79462569 C21.1462957,3.06064915 20.7133141,2.39575613 20.1537457,1.84631263 C19.6042936,1.28663044 18.9393579,0.853553834 18.2053171,0.577289264 C17.505598,0.305564652 16.7060187,0.119640918 15.5351626,0.0664138091 C14.3620796,0.0126627249 13.9873533,0 10.9999345,0 L10.9999345,0 L11.0000218,3.87819277e-17 Z" id="Shape"></path>
                <path d="M11,5.39622642 C7.90512131,5.39622642 5.39622642,7.90512131 5.39622642,11 C5.39622642,14.0948787 7.90512131,16.6037736 11,16.6037736 C14.0948787,16.6037736 16.6037736,14.0948787 16.6037736,11 C16.6037736,7.90512131 14.0948787,5.39622642 11,5.39622642 L11,5.39622642 Z M11,14.6375038 C8.99106776,14.6374799 7.36252357,13.0089034 7.36253952,10.9999711 C7.36255547,8.99103888 8.99112552,7.36248822 11.0000578,7.3624962 C13.00899,7.36250417 14.6375471,8.99106776 14.6375471,11 C14.6375232,13.0089449 13.0089449,14.6375038 11,14.6375038 Z" id="Shape"></path>
                <ellipse id="Oval" cx="16.6037736" cy="4.98113208" rx="1.24528302" ry="1.24528302"></ellipse>
            </g>
        </g>
    </g>
</svg>