<?xml version="1.0" encoding="UTF-8" standalone="no"?>
<svg width="28px" height="22px" viewBox="0 0 28 22" version="1.1" xmlns="http://www.w3.org/2000/svg" xmlns:xlink="http://www.w3.org/1999/xlink">
    <!-- Generator: Sketch 41.2 (35397) - http://www.bohemiancoding.com/sketch -->
    <title>Fill-1</title>
    <desc>Created with Sketch.</desc>
    <defs></defs>
    <g id="Symbols" stroke="none" stroke-width="1" fill="none" fill-rule="evenodd">
        <g id="Large-/-Header" transform="translate(-1237.000000, -20.000000)" fill="#55ACEE">
            <path d="M1261.70076,23.4787493 C1262.88656,22.7914185 1263.79754,21.703032 1264.2265,20.4060639 C1263.11644,21.0426368 1261.8871,21.5047374 1260.57852,21.7537899 C1259.53076,20.6743367 1258.0378,20 1256.38552,20 C1253.21312,20 1250.6409,22.4865999 1250.6409,25.5537358 C1250.6409,25.9890362 1250.69172,26.412967 1250.78972,26.8194369 C1246.01544,26.5878451 1241.78254,24.3766919 1238.94936,21.0165133 C1238.45488,21.8367623 1238.17152,22.7908771 1238.17152,23.808744 C1238.17152,25.7356524 1239.18568,27.4355712 1240.72708,28.4315106 C1239.78544,28.40268 1238.89966,28.1528153 1238.12518,27.7368706 C1238.12462,27.7600162 1238.12462,27.7831619 1238.12462,27.8067136 C1238.12462,30.4975637 1240.10478,32.7422848 1242.73272,33.2525718 C1242.2507,33.3795344 1241.7432,33.4474824 1241.21932,33.4474824 C1240.84916,33.4474824 1240.48922,33.4125609 1240.13852,33.347726 C1240.86946,35.5541419 1242.99088,37.1599892 1245.50472,37.2046562 C1243.5387,38.6943692 1241.06182,39.5822956 1238.37032,39.5822956 C1237.90664,39.5822956 1237.4494,39.5559014 1237,39.504602 C1239.54226,41.0804007 1242.56178,42 1245.80586,42 C1256.37208,42 1262.1503,33.5370872 1262.1503,26.1977531 C1262.1503,25.9569573 1262.14456,25.7175149 1262.1335,25.4792907 C1263.25602,24.6961289 1264.22986,23.7180563 1265,22.604223 C1263.96988,23.0460206 1262.86262,23.3446129 1261.70076,23.4787493 Z" id="Fill-1"></path>
        </g>
    </g>
</svg>